<?xml version="1.0" standalone="no"?>
<!DOCTYPE svg PUBLIC "-//W3C//DTD SVG 20010904//EN"
 "http://www.w3.org/TR/2001/REC-SVG-20010904/DTD/svg10.dtd">
<svg version="1.0" xmlns="http://www.w3.org/2000/svg"
 width="256.000000pt" height="256.000000pt" viewBox="0 0 256.000000 256.000000"
 preserveAspectRatio="xMidYMid meet">

<g transform="translate(0.000000,256.000000) scale(0.100000,-0.100000)"
fill="#000000" stroke="none">
<path d="M795 2034 c-264 -207 -251 -194 -193 -194 73 0 78 -4 61 -51 -13 -39
-12 -105 3 -176 4 -21 1 -43 -10 -65 -16 -31 -16 -33 1 -45 29 -22 62 -16 69
12 9 36 -7 138 -28 182 -12 25 -4 77 17 110 14 20 21 22 58 17 50 -8 51 -9 66
-80 15 -63 26 -71 129 -83 136 -16 279 31 384 128 l52 48 -17 59 c-9 33 -17
63 -17 66 0 4 45 41 100 84 54 43 98 79 96 81 -2 3 -546 74 -556 72 -3 0 -99
-74 -215 -165z"/>
</g>
</svg>
